<svg width="187" height="56" viewBox="0 0 187 56" fill="none" xmlns="http://www.w3.org/2000/svg">
<path d="M59.818 41.532C57.8167 41.532 56.0433 41.1773 54.498 40.468C52.9527 39.7587 51.7367 38.72 50.85 37.352C49.9887 35.9587 49.558 34.274 49.558 32.298V31.348H53.624V32.298C53.624 34.1727 54.1813 35.5787 55.296 36.516C56.436 37.4533 57.9433 37.922 59.818 37.922C61.718 37.922 63.1493 37.5293 64.112 36.744C65.0747 35.9333 65.556 34.8947 65.556 33.628C65.556 32.792 65.328 32.108 64.872 31.576C64.416 31.044 63.77 30.626 62.934 30.322C62.098 29.9927 61.0973 29.6887 59.932 29.41L58.526 29.068C56.8287 28.6627 55.3467 28.1687 54.08 27.586C52.8387 26.978 51.876 26.18 51.192 25.192C50.508 24.204 50.166 22.9373 50.166 21.392C50.166 19.8213 50.546 18.4787 51.306 17.364C52.0913 16.2493 53.168 15.388 54.536 14.78C55.904 14.172 57.5127 13.868 59.362 13.868C61.2113 13.868 62.858 14.1847 64.302 14.818C65.7713 15.4513 66.924 16.3887 67.76 17.63C68.596 18.8713 69.014 20.4293 69.014 22.304V23.672H64.948V22.304C64.948 21.164 64.7073 20.2393 64.226 19.53C63.77 18.8207 63.124 18.3013 62.288 17.972C61.452 17.6427 60.4767 17.478 59.362 17.478C57.7407 17.478 56.474 17.82 55.562 18.504C54.6753 19.1627 54.232 20.0873 54.232 21.278C54.232 22.0887 54.422 22.76 54.802 23.292C55.2073 23.7987 55.79 24.2167 56.55 24.546C57.31 24.8753 58.26 25.1667 59.4 25.42L60.806 25.762C62.5287 26.142 64.0487 26.636 65.366 27.244C66.6833 27.8267 67.722 28.6247 68.482 29.638C69.242 30.6513 69.622 31.956 69.622 33.552C69.622 35.148 69.2167 36.5413 68.406 37.732C67.6207 38.9227 66.4933 39.86 65.024 40.544C63.5547 41.2027 61.8193 41.532 59.818 41.532ZM81.0743 41C79.9343 41 79.0223 40.658 78.3383 39.974C77.6796 39.29 77.3503 38.378 77.3503 37.238V25.572H72.1823V22.266H77.3503V16.072H81.2643V22.266H86.8503V25.572H81.2643V36.554C81.2643 37.314 81.6189 37.694 82.3282 37.694H86.2423V41H81.0743ZM97.2254 41.532C95.8828 41.532 94.6794 41.304 93.6154 40.848C92.5768 40.392 91.7408 39.7207 91.1074 38.834C90.4994 37.9473 90.1954 36.8707 90.1954 35.604C90.1954 34.312 90.4994 33.248 91.1074 32.412C91.7408 31.5507 92.5894 30.9047 93.6534 30.474C94.7428 30.0433 95.9714 29.828 97.3394 29.828H103.039V28.612C103.039 27.5227 102.71 26.6487 102.051 25.99C101.393 25.3313 100.379 25.002 99.0114 25.002C97.6688 25.002 96.6428 25.3187 95.9334 25.952C95.2241 26.5853 94.7554 27.4087 94.5274 28.422L90.8794 27.244C91.1834 26.2307 91.6648 25.3187 92.3234 24.508C93.0074 23.672 93.9068 23.0007 95.0214 22.494C96.1361 21.9873 97.4788 21.734 99.0494 21.734C101.481 21.734 103.394 22.3547 104.787 23.596C106.181 24.8373 106.877 26.598 106.877 28.878V36.592C106.877 37.352 107.232 37.732 107.941 37.732H109.537V41H106.611C105.725 41 105.003 40.772 104.445 40.316C103.888 39.86 103.609 39.2393 103.609 38.454V38.34H103.039C102.837 38.72 102.533 39.1633 102.127 39.67C101.722 40.1767 101.127 40.62 100.341 41C99.5561 41.3547 98.5174 41.532 97.2254 41.532ZM97.7954 38.302C99.3661 38.302 100.633 37.8587 101.595 36.972C102.558 36.06 103.039 34.8187 103.039 33.248V32.868H97.5674C96.5288 32.868 95.6928 33.096 95.0594 33.552C94.4261 33.9827 94.1094 34.6287 94.1094 35.49C94.1094 36.3513 94.4388 37.0353 95.0974 37.542C95.7561 38.0487 96.6554 38.302 97.7954 38.302ZM119.074 41C117.934 41 117.022 40.658 116.338 39.974C115.68 39.29 115.35 38.378 115.35 37.238V25.572H110.182V22.266H115.35V16.072H119.264V22.266H124.85V25.572H119.264V36.554C119.264 37.314 119.619 37.694 120.328 37.694H124.242V41H119.074ZM136.631 41.342C135.212 41.342 133.945 41.0253 132.831 40.392C131.716 39.7587 130.842 38.8593 130.209 37.694C129.575 36.5287 129.259 35.1353 129.259 33.514V22.266H133.173V33.248C133.173 34.8693 133.578 36.0727 134.389 36.858C135.199 37.618 136.327 37.998 137.771 37.998C139.367 37.998 140.646 37.466 141.609 36.402C142.597 35.3127 143.091 33.7547 143.091 31.728V22.266H147.005V41H143.167V38.188H142.559C142.204 38.948 141.571 39.67 140.659 40.354C139.747 41.0127 138.404 41.342 136.631 41.342ZM152.79 41V22.266H156.628V24.47H157.236C157.54 23.6847 158.022 23.1147 158.68 22.76C159.364 22.38 160.2 22.19 161.188 22.19H163.43V25.724H161.036C159.77 25.724 158.731 26.0787 157.92 26.788C157.11 27.472 156.704 28.536 156.704 29.98V41H152.79ZM172.78 41.532C171.437 41.532 170.234 41.304 169.17 40.848C168.131 40.392 167.295 39.7207 166.662 38.834C166.054 37.9473 165.75 36.8707 165.75 35.604C165.75 34.312 166.054 33.248 166.662 32.412C167.295 31.5507 168.144 30.9047 169.208 30.474C170.297 30.0433 171.526 29.828 172.894 29.828H178.594V28.612C178.594 27.5227 178.265 26.6487 177.606 25.99C176.947 25.3313 175.934 25.002 174.566 25.002C173.223 25.002 172.197 25.3187 171.488 25.952C170.779 26.5853 170.31 27.4087 170.082 28.422L166.434 27.244C166.738 26.2307 167.219 25.3187 167.878 24.508C168.562 23.672 169.461 23.0007 170.576 22.494C171.691 21.9873 173.033 21.734 174.604 21.734C177.036 21.734 178.949 22.3547 180.342 23.596C181.735 24.8373 182.432 26.598 182.432 28.878V36.592C182.432 37.352 182.787 37.732 183.496 37.732H185.092V41H182.166C181.279 41 180.557 40.772 180 40.316C179.443 39.86 179.164 39.2393 179.164 38.454V38.34H178.594C178.391 38.72 178.087 39.1633 177.682 39.67C177.277 40.1767 176.681 40.62 175.896 41C175.111 41.3547 174.072 41.532 172.78 41.532ZM173.35 38.302C174.921 38.302 176.187 37.8587 177.15 36.972C178.113 36.06 178.594 34.8187 178.594 33.248V32.868H173.122C172.083 32.868 171.247 33.096 170.614 33.552C169.981 33.9827 169.664 34.6287 169.664 35.49C169.664 36.3513 169.993 37.0353 170.652 37.542C171.311 38.0487 172.21 38.302 173.35 38.302Z" fill="white"/>
<path fill-rule="evenodd" clip-rule="evenodd" d="M7.49035 38.5091C5.91039 37.9642 4.46071 37.0651 3.25712 35.8616C1.1705 33.7765 0 30.9485 0 28C0 25.0515 1.1705 22.2235 3.25712 20.1384C4.46071 18.9349 5.91245 18.0358 7.49035 17.4909C7.56273 17.2794 7.64338 17.07 7.72817 16.8632C7.81503 16.6538 7.90809 16.4476 8.00735 16.2444C8.54504 15.1385 9.26677 14.1283 10.1395 13.2561C11.1714 12.2241 12.3957 11.4052 13.7461 10.8463C14.2486 10.6385 14.7636 10.4679 15.2868 10.3361C15.6652 10.2404 16.0499 10.1649 16.4366 10.1101C16.9536 10.0367 17.4768 10 18 10C19.46 10 20.9056 10.2875 22.2539 10.8463C23.6043 11.4052 24.8286 12.2241 25.8605 13.2561C26.8945 14.2885 27.7135 15.5144 28.2718 16.8632C28.3566 17.07 28.4373 17.2794 28.5097 17.4909C28.7206 17.5638 28.9295 17.6429 29.1363 17.7287C30.4867 18.2876 31.7109 19.1065 32.7429 20.1384C33.7769 21.1709 34.5958 22.3967 35.1542 23.7456C35.3341 24.1814 35.4871 24.6276 35.6091 25.081C35.8676 26.0307 36 27.012 36 28C36 29.46 35.7125 30.9056 35.1542 32.2544C34.5958 33.6033 33.7769 34.8291 32.7429 35.8616C31.7109 36.8935 30.4867 37.7124 29.1363 38.2713C28.9295 38.3571 28.7206 38.4362 28.5097 38.5091C27.9637 40.0886 27.0662 41.5398 25.8605 42.7439C23.776 44.8285 20.949 46 18 46C15.051 46 12.224 44.8285 10.1395 42.7439C8.93382 41.5403 8.03631 40.0886 7.49035 38.5091ZM11.1176 21.1176V34.8824H24.8824V21.1176H11.1176Z" fill="white"/>
</svg>
